<svg width="13" height="15" viewBox="0 0 13 15" fill="none" xmlns="http://www.w3.org/2000/svg">
<path d="M8.49671 1.85352C8.34596 0.796899 7.42624 0 6.35747 0C5.67014 0 5.01737 0.331675 4.61151 0.887545C4.52861 1.00091 4.55341 1.15993 4.66677 1.24283C4.77977 1.32543 4.93916 1.30093 5.02191 1.18742C5.33258 0.762338 5.83177 0.508499 6.3574 0.508499C7.17478 0.508499 7.87798 1.11762 7.99328 1.92525C8.01145 2.05209 8.12027 2.14363 8.24474 2.14363C8.25658 2.14363 8.26879 2.14274 8.28094 2.1411C8.41992 2.12121 8.51653 1.99243 8.49671 1.85352Z" fill="black"/>
<path d="M12.1665 4.69932L11.4038 3.42811C11.3579 3.35146 11.2751 3.30469 11.1858 3.30469H10.4549C10.3145 3.30469 10.2006 3.41857 10.2006 3.5589C10.2006 3.69923 10.3145 3.81311 10.4549 3.81311H11.0419L11.4995 4.57582H1.21101L1.66864 3.81311H1.9379C2.07822 3.81311 2.19211 3.69923 2.19211 3.5589C2.19211 3.41857 2.07822 3.30469 1.9379 3.30469H1.52474C1.43536 3.30469 1.3526 3.35146 1.30672 3.42811L0.544012 4.69932C0.496864 4.77797 0.495747 4.87577 0.540809 4.95547C0.585872 5.03516 0.670336 5.08447 0.762025 5.08447H11.9485C12.0402 5.08447 12.1246 5.03516 12.1697 4.95547C12.2148 4.87577 12.2136 4.77782 12.1665 4.69932Z" fill="black"/>
<path d="M10.9006 2.35465C10.865 2.29722 10.8082 2.25648 10.7425 2.24113L7.2767 1.43053C7.21108 1.41511 7.14196 1.42658 7.08461 1.46204C7.0274 1.49764 6.98659 1.55447 6.97124 1.62016L6.70988 2.73742C6.67785 2.87409 6.76277 3.01085 6.89952 3.04272C7.03619 3.07475 7.17309 2.98984 7.20497 2.85309L7.40846 1.98349L10.3791 2.67835L9.9123 4.67414C9.88027 4.81081 9.96518 4.94756 10.1019 4.97944C10.1215 4.98399 10.141 4.98615 10.1602 4.98615C10.2756 4.98615 10.3801 4.90705 10.4073 4.78988L10.932 2.54659C10.9475 2.48097 10.9362 2.41185 10.9006 2.35465Z" fill="black"/>
<path d="M6.4906 2.95718L6.25896 0.997891C6.25107 0.93093 6.21688 0.869779 6.16385 0.828068C6.11081 0.786358 6.04385 0.76729 5.97659 0.775185L1.72433 1.2778C1.58498 1.29433 1.48532 1.42066 1.50178 1.56017L1.88797 4.82798C1.90332 4.95736 2.01303 5.05247 2.14018 5.05247C2.15008 5.05247 2.16029 5.0518 2.17042 5.05068C2.3097 5.03415 2.40936 4.90783 2.39297 4.76832L2.03657 1.75278L5.78391 1.3099L5.98561 3.01669C6.00214 3.15612 6.12787 3.25519 6.26797 3.2394C6.40733 3.22301 6.50699 3.09661 6.4906 2.95718Z" fill="black"/>
<path d="M8.50019 4.73449L7.99557 2.636C7.97978 2.57053 7.93859 2.51385 7.88116 2.47862C7.82373 2.44368 7.75484 2.43273 7.68892 2.44837L3.5933 3.43334C3.45677 3.46612 3.37275 3.60346 3.40552 3.73999L3.65772 4.78887C3.6905 4.92554 3.82785 5.00964 3.9643 4.97664C4.10083 4.94387 4.18484 4.80652 4.15207 4.66999L3.95923 3.86825L7.56051 3.00231L8.0057 4.85352C8.03363 4.97008 8.13791 5.04829 8.25268 5.04829C8.27242 5.04829 8.29238 5.04598 8.31242 5.04114C8.44895 5.00829 8.53297 4.87102 8.50019 4.73449Z" fill="black"/>
<path d="M12.2033 4.81735C12.1963 4.68224 12.0847 4.57617 11.9493 4.57617H0.762822C0.627411 4.57617 0.515835 4.68216 0.508834 4.81735L0.000334884 14.7326C-0.00324032 14.8022 0.0219352 14.8702 0.0699025 14.9207C0.117944 14.9712 0.184532 14.9998 0.254249 14.9998H12.4576C12.5273 14.9998 12.5939 14.9712 12.6422 14.9207C12.6901 14.8702 12.7153 14.8022 12.7118 14.7326L12.2033 4.81735ZM0.521794 14.4913L1.00422 5.0846H11.7076L12.19 14.4913H0.521794Z" fill="black"/>
<path d="M8.26271 5.59375C7.8421 5.59375 7.5 5.93585 7.5 6.35646C7.5 6.77707 7.8421 7.11917 8.26271 7.11917C8.68332 7.11917 9.02542 6.77707 9.02542 6.35646C9.02542 5.93585 8.68332 5.59375 8.26271 5.59375ZM8.26271 6.61075C8.12246 6.61075 8.0085 6.49671 8.0085 6.35653C8.0085 6.21636 8.12253 6.10232 8.26271 6.10232C8.40289 6.10232 8.51692 6.21636 8.51692 6.35653C8.51692 6.49671 8.40289 6.61075 8.26271 6.61075Z" fill="black"/>
<path d="M4.45021 5.59375C4.0296 5.59375 3.6875 5.93585 3.6875 6.35646C3.6875 6.77707 4.0296 7.11917 4.45021 7.11917C4.87082 7.11917 5.21292 6.77707 5.21292 6.35646C5.21292 5.93585 4.87082 5.59375 4.45021 5.59375ZM4.45021 6.61075C4.31003 6.61075 4.196 6.49671 4.196 6.35653C4.196 6.21636 4.31003 6.10232 4.45021 6.10232C4.59039 6.10232 4.70442 6.21636 4.70442 6.35653C4.70442 6.49671 4.59039 6.61075 4.45021 6.61075Z" fill="black"/>
<path d="M8.26308 6.35547H8.24349C8.10316 6.35547 7.98928 6.46935 7.98928 6.60968C7.98928 6.64439 7.99613 6.67753 8.00887 6.7077V8.00796C8.00887 8.91911 7.26753 9.66052 6.3563 9.66052C5.44507 9.66052 4.70374 8.91919 4.70374 8.00796V6.60976C4.70374 6.46943 4.58985 6.35554 4.44952 6.35554C4.3092 6.35554 4.19531 6.46943 4.19531 6.60976V8.00803C4.19531 9.19962 5.16471 10.169 6.3563 10.169C7.54789 10.169 8.51729 9.19962 8.51729 8.00803V6.60976C8.51729 6.46943 8.40341 6.35547 8.26308 6.35547Z" fill="black"/>
</svg>
