<svg width="15" height="15" viewBox="0 0 15 15" fill="none" xmlns="http://www.w3.org/2000/svg">
<rect x="1" y="1" width="14" height="14" fill="#C4C4C4"/>
<rect width="14" height="14" fill="white"/>
<path d="M10.3549 1.08629C10.2427 0.536187 9.75534 0.120773 9.17241 0.120773C9.03893 0.120773 8.93103 0.22867 8.93103 0.362153C8.93103 0.495635 9.03893 0.603532 9.17241 0.603532C9.57165 0.603532 9.89655 0.928429 9.89655 1.32767C9.89655 1.72691 9.57165 2.05181 9.17241 2.05181C9.03893 2.05181 8.93103 2.1597 8.93103 2.29319C8.93103 2.42667 9.03893 2.53457 9.17241 2.53457C9.7551 2.53457 10.2427 2.11915 10.3549 1.56905H13.5172V3.74146H0.482759V1.56905H3.86207H4.58621C4.71969 1.56905 4.82759 1.46115 4.82759 1.32767C4.82759 1.19419 4.71969 1.08629 4.58621 1.08629H4.14786C4.24779 0.805808 4.51331 0.603532 4.82759 0.603532C5.22683 0.603532 5.55172 0.928429 5.55172 1.32767C5.55172 1.72691 5.22683 2.05181 4.82759 2.05181C4.6941 2.05181 4.58621 2.1597 4.58621 2.29319C4.58621 2.42667 4.6941 2.53457 4.82759 2.53457C5.49307 2.53457 6.03448 1.99315 6.03448 1.32767C6.03448 0.662187 5.49307 0.120773 4.82759 0.120773C4.2449 0.120773 3.75731 0.536187 3.64507 1.08629H0V4.22422V13.8794H14V4.22422V1.08629H10.3549ZM13.5172 13.3966H0.482759V4.22422H13.5172V13.3966Z" fill="#333333"/>
<path d="M6.27593 0.603532C6.67517 0.603532 7.00006 0.928428 7.00006 1.32767C7.00006 1.72691 6.67517 2.05181 6.27593 2.05181C6.14244 2.05181 6.03455 2.1597 6.03455 2.29319C6.03455 2.42667 6.14244 2.53457 6.27593 2.53457C6.94141 2.53457 7.48282 1.99315 7.48282 1.32767C7.48282 0.662187 6.94141 0.120773 6.27593 0.120773C6.14244 0.120773 6.03455 0.22867 6.03455 0.362153C6.03455 0.495635 6.14244 0.603532 6.27593 0.603532Z" fill="#333333"/>
<path d="M7.72447 0.603532C8.12371 0.603532 8.44861 0.928428 8.44861 1.32767C8.44861 1.72691 8.12371 2.05181 7.72447 2.05181C7.59099 2.05181 7.48309 2.1597 7.48309 2.29319C7.48309 2.42667 7.59099 2.53457 7.72447 2.53457C8.38996 2.53457 8.93137 1.99315 8.93137 1.32767C8.93137 0.662187 8.38996 0.120773 7.72447 0.120773C7.59099 0.120773 7.48309 0.22867 7.48309 0.362153C7.48309 0.495635 7.59099 0.603532 7.72447 0.603532Z" fill="#333333"/>
<path d="M5.31047 6.15548C5.44378 6.15548 5.55185 6.04741 5.55185 5.9141C5.55185 5.78079 5.44378 5.67272 5.31047 5.67272C5.17716 5.67272 5.06909 5.78079 5.06909 5.9141C5.06909 6.04741 5.17716 6.15548 5.31047 6.15548Z" fill="#333333"/>
<path d="M7.00011 6.15548C7.13342 6.15548 7.24149 6.04741 7.24149 5.9141C7.24149 5.78079 7.13342 5.67272 7.00011 5.67272C6.8668 5.67272 6.75873 5.78079 6.75873 5.9141C6.75873 6.04741 6.8668 6.15548 7.00011 6.15548Z" fill="#333333"/>
<path d="M8.68993 6.15548C8.82324 6.15548 8.93131 6.04741 8.93131 5.9141C8.93131 5.78079 8.82324 5.67272 8.68993 5.67272C8.55662 5.67272 8.44855 5.78079 8.44855 5.9141C8.44855 6.04741 8.55662 6.15548 8.68993 6.15548Z" fill="#333333"/>
<path d="M10.379 6.15548C10.5123 6.15548 10.6204 6.04741 10.6204 5.9141C10.6204 5.78079 10.5123 5.67272 10.379 5.67272C10.2457 5.67272 10.1376 5.78079 10.1376 5.9141C10.1376 6.04741 10.2457 6.15548 10.379 6.15548Z" fill="#333333"/>
<path d="M12.0687 6.15548C12.202 6.15548 12.31 6.04741 12.31 5.9141C12.31 5.78079 12.202 5.67272 12.0687 5.67272C11.9353 5.67272 11.8273 5.78079 11.8273 5.9141C11.8273 6.04741 11.9353 6.15548 12.0687 6.15548Z" fill="#333333"/>
<path d="M1.93102 8.08637C2.06433 8.08637 2.17239 7.9783 2.17239 7.84499C2.17239 7.71168 2.06433 7.60361 1.93102 7.60361C1.79771 7.60361 1.68964 7.71168 1.68964 7.84499C1.68964 7.9783 1.79771 8.08637 1.93102 8.08637Z" fill="#333333"/>
<path d="M3.62083 8.08637C3.75414 8.08637 3.86221 7.9783 3.86221 7.84499C3.86221 7.71168 3.75414 7.60361 3.62083 7.60361C3.48752 7.60361 3.37946 7.71168 3.37946 7.84499C3.37946 7.9783 3.48752 8.08637 3.62083 8.08637Z" fill="#333333"/>
<path d="M5.31047 8.08637C5.44378 8.08637 5.55185 7.9783 5.55185 7.84499C5.55185 7.71168 5.44378 7.60361 5.31047 7.60361C5.17716 7.60361 5.06909 7.71168 5.06909 7.84499C5.06909 7.9783 5.17716 8.08637 5.31047 8.08637Z" fill="#333333"/>
<path d="M7.00011 8.08637C7.13342 8.08637 7.24149 7.9783 7.24149 7.84499C7.24149 7.71168 7.13342 7.60361 7.00011 7.60361C6.8668 7.60361 6.75873 7.71168 6.75873 7.84499C6.75873 7.9783 6.8668 8.08637 7.00011 8.08637Z" fill="#333333"/>
<path d="M8.68993 8.08637C8.82324 8.08637 8.93131 7.9783 8.93131 7.84499C8.93131 7.71168 8.82324 7.60361 8.68993 7.60361C8.55662 7.60361 8.44855 7.71168 8.44855 7.84499C8.44855 7.9783 8.55662 8.08637 8.68993 8.08637Z" fill="#333333"/>
<path d="M10.379 8.08637C10.5123 8.08637 10.6204 7.9783 10.6204 7.84499C10.6204 7.71168 10.5123 7.60361 10.379 7.60361C10.2457 7.60361 10.1376 7.71168 10.1376 7.84499C10.1376 7.9783 10.2457 8.08637 10.379 8.08637Z" fill="#333333"/>
<path d="M12.0687 8.08637C12.202 8.08637 12.31 7.9783 12.31 7.84499C12.31 7.71168 12.202 7.60361 12.0687 7.60361C11.9353 7.60361 11.8273 7.71168 11.8273 7.84499C11.8273 7.9783 11.9353 8.08637 12.0687 8.08637Z" fill="#333333"/>
<path d="M1.93102 9.77611C2.06433 9.77611 2.17239 9.66804 2.17239 9.53473C2.17239 9.40142 2.06433 9.29335 1.93102 9.29335C1.79771 9.29335 1.68964 9.40142 1.68964 9.53473C1.68964 9.66804 1.79771 9.77611 1.93102 9.77611Z" fill="#333333"/>
<path d="M3.62083 9.77611C3.75414 9.77611 3.86221 9.66804 3.86221 9.53473C3.86221 9.40142 3.75414 9.29335 3.62083 9.29335C3.48752 9.29335 3.37946 9.40142 3.37946 9.53473C3.37946 9.66804 3.48752 9.77611 3.62083 9.77611Z" fill="#333333"/>
<path d="M5.31047 9.77611C5.44378 9.77611 5.55185 9.66804 5.55185 9.53473C5.55185 9.40142 5.44378 9.29335 5.31047 9.29335C5.17716 9.29335 5.06909 9.40142 5.06909 9.53473C5.06909 9.66804 5.17716 9.77611 5.31047 9.77611Z" fill="#333333"/>
<path d="M7.00011 9.77611C7.13342 9.77611 7.24149 9.66804 7.24149 9.53473C7.24149 9.40142 7.13342 9.29335 7.00011 9.29335C6.8668 9.29335 6.75873 9.40142 6.75873 9.53473C6.75873 9.66804 6.8668 9.77611 7.00011 9.77611Z" fill="#333333"/>
<path d="M8.68993 9.77611C8.82324 9.77611 8.93131 9.66804 8.93131 9.53473C8.93131 9.40142 8.82324 9.29335 8.68993 9.29335C8.55662 9.29335 8.44855 9.40142 8.44855 9.53473C8.44855 9.66804 8.55662 9.77611 8.68993 9.77611Z" fill="#333333"/>
<path d="M10.379 9.77611C10.5123 9.77611 10.6204 9.66804 10.6204 9.53473C10.6204 9.40142 10.5123 9.29335 10.379 9.29335C10.2457 9.29335 10.1376 9.40142 10.1376 9.53473C10.1376 9.66804 10.2457 9.77611 10.379 9.77611Z" fill="#333333"/>
<path d="M12.0687 9.77611C12.202 9.77611 12.31 9.66804 12.31 9.53473C12.31 9.40142 12.202 9.29335 12.0687 9.29335C11.9353 9.29335 11.8273 9.40142 11.8273 9.53473C11.8273 9.66804 11.9353 9.77611 12.0687 9.77611Z" fill="#333333"/>
<path d="M1.93102 11.707C2.06433 11.707 2.17239 11.5989 2.17239 11.4656C2.17239 11.3323 2.06433 11.2242 1.93102 11.2242C1.79771 11.2242 1.68964 11.3323 1.68964 11.4656C1.68964 11.5989 1.79771 11.707 1.93102 11.707Z" fill="#333333"/>
<path d="M3.62083 11.707C3.75414 11.707 3.86221 11.5989 3.86221 11.4656C3.86221 11.3323 3.75414 11.2242 3.62083 11.2242C3.48752 11.2242 3.37946 11.3323 3.37946 11.4656C3.37946 11.5989 3.48752 11.707 3.62083 11.707Z" fill="#333333"/>
<path d="M5.31047 11.707C5.44378 11.707 5.55185 11.5989 5.55185 11.4656C5.55185 11.3323 5.44378 11.2242 5.31047 11.2242C5.17716 11.2242 5.06909 11.3323 5.06909 11.4656C5.06909 11.5989 5.17716 11.707 5.31047 11.707Z" fill="#333333"/>
<path d="M7.00011 11.707C7.13342 11.707 7.24149 11.5989 7.24149 11.4656C7.24149 11.3323 7.13342 11.2242 7.00011 11.2242C6.8668 11.2242 6.75873 11.3323 6.75873 11.4656C6.75873 11.5989 6.8668 11.707 7.00011 11.707Z" fill="#333333"/>
<path d="M8.68993 11.707C8.82324 11.707 8.93131 11.5989 8.93131 11.4656C8.93131 11.3323 8.82324 11.2242 8.68993 11.2242C8.55662 11.2242 8.44855 11.3323 8.44855 11.4656C8.44855 11.5989 8.55662 11.707 8.68993 11.707Z" fill="#333333"/>
</svg>
