<svg width="15" height="15" viewBox="0 0 15 15" fill="none" xmlns="http://www.w3.org/2000/svg">
<path d="M11.0946 1.03448C10.9743 0.445086 10.4522 0 9.82759 0C9.68457 0 9.56897 0.115603 9.56897 0.258621C9.56897 0.401638 9.68457 0.517241 9.82759 0.517241C10.2553 0.517241 10.6034 0.865345 10.6034 1.2931C10.6034 1.72086 10.2553 2.06897 9.82759 2.06897C9.68457 2.06897 9.56897 2.18457 9.56897 2.32759C9.56897 2.4706 9.68457 2.58621 9.82759 2.58621C10.4519 2.58621 10.9743 2.14112 11.0946 1.55172H14.4828V3.87931H0.517241V1.55172H4.13793H4.91379C5.05681 1.55172 5.17241 1.43612 5.17241 1.2931C5.17241 1.15009 5.05681 1.03448 4.91379 1.03448H4.44414C4.55121 0.733965 4.83569 0.517241 5.17241 0.517241C5.60017 0.517241 5.94828 0.865345 5.94828 1.2931C5.94828 1.72086 5.60017 2.06897 5.17241 2.06897C5.0294 2.06897 4.91379 2.18457 4.91379 2.32759C4.91379 2.4706 5.0294 2.58621 5.17241 2.58621C5.88543 2.58621 6.46552 2.00612 6.46552 1.2931C6.46552 0.580086 5.88543 0 5.17241 0C4.5481 0 4.02569 0.445086 3.90543 1.03448H0V4.39655V14.7414H15V4.39655V1.03448H11.0946ZM14.4828 14.2241H0.517241V4.39655H14.4828V14.2241Z" fill="black"/>
<path d="M6.72432 0.517241C7.15208 0.517241 7.50018 0.865345 7.50018 1.2931C7.50018 1.72086 7.15208 2.06897 6.72432 2.06897C6.5813 2.06897 6.4657 2.18457 6.4657 2.32759C6.4657 2.4706 6.5813 2.58621 6.72432 2.58621C7.43734 2.58621 8.01742 2.00612 8.01742 1.2931C8.01742 0.580086 7.43734 0 6.72432 0C6.5813 0 6.4657 0.115603 6.4657 0.258621C6.4657 0.401638 6.5813 0.517241 6.72432 0.517241Z" fill="black"/>
<path d="M8.27614 0.517241C8.7039 0.517241 9.052 0.865345 9.052 1.2931C9.052 1.72086 8.7039 2.06897 8.27614 2.06897C8.13312 2.06897 8.01752 2.18457 8.01752 2.32759C8.01752 2.4706 8.13312 2.58621 8.27614 2.58621C8.98916 2.58621 9.56924 2.00612 9.56924 1.2931C9.56924 0.580086 8.98916 0 8.27614 0C8.13312 0 8.01752 0.115603 8.01752 0.258621C8.01752 0.401638 8.13312 0.517241 8.27614 0.517241Z" fill="black"/>
<path d="M5.68929 6.46554C5.83212 6.46554 5.94791 6.34976 5.94791 6.20692C5.94791 6.06409 5.83212 5.9483 5.68929 5.9483C5.54645 5.9483 5.43066 6.06409 5.43066 6.20692C5.43066 6.34976 5.54645 6.46554 5.68929 6.46554Z" fill="black"/>
<path d="M7.49995 6.46554C7.64279 6.46554 7.75858 6.34976 7.75858 6.20692C7.75858 6.06409 7.64279 5.9483 7.49995 5.9483C7.35712 5.9483 7.24133 6.06409 7.24133 6.20692C7.24133 6.34976 7.35712 6.46554 7.49995 6.46554Z" fill="black"/>
<path d="M9.31044 6.46554C9.45327 6.46554 9.56906 6.34976 9.56906 6.20692C9.56906 6.06409 9.45327 5.9483 9.31044 5.9483C9.16761 5.9483 9.05182 6.06409 9.05182 6.20692C9.05182 6.34976 9.16761 6.46554 9.31044 6.46554Z" fill="black"/>
<path d="M11.1204 6.46554C11.2633 6.46554 11.3791 6.34976 11.3791 6.20692C11.3791 6.06409 11.2633 5.9483 11.1204 5.9483C10.9776 5.9483 10.8618 6.06409 10.8618 6.20692C10.8618 6.34976 10.9776 6.46554 11.1204 6.46554Z" fill="black"/>
<path d="M12.9311 6.46554C13.0739 6.46554 13.1897 6.34976 13.1897 6.20692C13.1897 6.06409 13.0739 5.9483 12.9311 5.9483C12.7883 5.9483 12.6725 6.06409 12.6725 6.20692C12.6725 6.34976 12.7883 6.46554 12.9311 6.46554Z" fill="black"/>
<path d="M2.06862 8.53448C2.21145 8.53448 2.32724 8.4187 2.32724 8.27586C2.32724 8.13303 2.21145 8.01724 2.06862 8.01724C1.92579 8.01724 1.81 8.13303 1.81 8.27586C1.81 8.4187 1.92579 8.53448 2.06862 8.53448Z" fill="black"/>
<path d="M3.87929 8.53448C4.02212 8.53448 4.13791 8.4187 4.13791 8.27586C4.13791 8.13303 4.02212 8.01724 3.87929 8.01724C3.73646 8.01724 3.62067 8.13303 3.62067 8.27586C3.62067 8.4187 3.73646 8.53448 3.87929 8.53448Z" fill="black"/>
<path d="M5.68929 8.53448C5.83212 8.53448 5.94791 8.4187 5.94791 8.27586C5.94791 8.13303 5.83212 8.01724 5.68929 8.01724C5.54645 8.01724 5.43066 8.13303 5.43066 8.27586C5.43066 8.4187 5.54645 8.53448 5.68929 8.53448Z" fill="black"/>
<path d="M7.49995 8.53448C7.64279 8.53448 7.75858 8.4187 7.75858 8.27586C7.75858 8.13303 7.64279 8.01724 7.49995 8.01724C7.35712 8.01724 7.24133 8.13303 7.24133 8.27586C7.24133 8.4187 7.35712 8.53448 7.49995 8.53448Z" fill="black"/>
<path d="M9.31044 8.53448C9.45327 8.53448 9.56906 8.4187 9.56906 8.27586C9.56906 8.13303 9.45327 8.01724 9.31044 8.01724C9.16761 8.01724 9.05182 8.13303 9.05182 8.27586C9.05182 8.4187 9.16761 8.53448 9.31044 8.53448Z" fill="black"/>
<path d="M11.1204 8.53448C11.2633 8.53448 11.3791 8.4187 11.3791 8.27586C11.3791 8.13303 11.2633 8.01724 11.1204 8.01724C10.9776 8.01724 10.8618 8.13303 10.8618 8.27586C10.8618 8.4187 10.9776 8.53448 11.1204 8.53448Z" fill="black"/>
<path d="M12.9311 8.53448C13.0739 8.53448 13.1897 8.4187 13.1897 8.27586C13.1897 8.13303 13.0739 8.01724 12.9311 8.01724C12.7883 8.01724 12.6725 8.13303 12.6725 8.27586C12.6725 8.4187 12.7883 8.53448 12.9311 8.53448Z" fill="black"/>
<path d="M2.06862 10.3449C2.21145 10.3449 2.32724 10.2291 2.32724 10.0863C2.32724 9.94343 2.21145 9.82764 2.06862 9.82764C1.92579 9.82764 1.81 9.94343 1.81 10.0863C1.81 10.2291 1.92579 10.3449 2.06862 10.3449Z" fill="black"/>
<path d="M3.87929 10.3449C4.02212 10.3449 4.13791 10.2291 4.13791 10.0863C4.13791 9.94343 4.02212 9.82764 3.87929 9.82764C3.73646 9.82764 3.62067 9.94343 3.62067 10.0863C3.62067 10.2291 3.73646 10.3449 3.87929 10.3449Z" fill="black"/>
<path d="M5.68929 10.3449C5.83212 10.3449 5.94791 10.2291 5.94791 10.0863C5.94791 9.94343 5.83212 9.82764 5.68929 9.82764C5.54645 9.82764 5.43066 9.94343 5.43066 10.0863C5.43066 10.2291 5.54645 10.3449 5.68929 10.3449Z" fill="black"/>
<path d="M7.49995 10.3449C7.64279 10.3449 7.75858 10.2291 7.75858 10.0863C7.75858 9.94343 7.64279 9.82764 7.49995 9.82764C7.35712 9.82764 7.24133 9.94343 7.24133 10.0863C7.24133 10.2291 7.35712 10.3449 7.49995 10.3449Z" fill="black"/>
<path d="M9.31044 10.3449C9.45327 10.3449 9.56906 10.2291 9.56906 10.0863C9.56906 9.94343 9.45327 9.82764 9.31044 9.82764C9.16761 9.82764 9.05182 9.94343 9.05182 10.0863C9.05182 10.2291 9.16761 10.3449 9.31044 10.3449Z" fill="black"/>
<path d="M11.1204 10.3449C11.2633 10.3449 11.3791 10.2291 11.3791 10.0863C11.3791 9.94343 11.2633 9.82764 11.1204 9.82764C10.9776 9.82764 10.8618 9.94343 10.8618 10.0863C10.8618 10.2291 10.9776 10.3449 11.1204 10.3449Z" fill="black"/>
<path d="M12.9311 10.3449C13.0739 10.3449 13.1897 10.2291 13.1897 10.0863C13.1897 9.94343 13.0739 9.82764 12.9311 9.82764C12.7883 9.82764 12.6725 9.94343 12.6725 10.0863C12.6725 10.2291 12.7883 10.3449 12.9311 10.3449Z" fill="black"/>
<path d="M2.06862 12.4138C2.21145 12.4138 2.32724 12.298 2.32724 12.1552C2.32724 12.0124 2.21145 11.8966 2.06862 11.8966C1.92579 11.8966 1.81 12.0124 1.81 12.1552C1.81 12.298 1.92579 12.4138 2.06862 12.4138Z" fill="black"/>
<path d="M3.87929 12.4138C4.02212 12.4138 4.13791 12.298 4.13791 12.1552C4.13791 12.0124 4.02212 11.8966 3.87929 11.8966C3.73646 11.8966 3.62067 12.0124 3.62067 12.1552C3.62067 12.298 3.73646 12.4138 3.87929 12.4138Z" fill="black"/>
<path d="M5.68929 12.4138C5.83212 12.4138 5.94791 12.298 5.94791 12.1552C5.94791 12.0124 5.83212 11.8966 5.68929 11.8966C5.54645 11.8966 5.43066 12.0124 5.43066 12.1552C5.43066 12.298 5.54645 12.4138 5.68929 12.4138Z" fill="black"/>
<path d="M7.49995 12.4138C7.64279 12.4138 7.75858 12.298 7.75858 12.1552C7.75858 12.0124 7.64279 11.8966 7.49995 11.8966C7.35712 11.8966 7.24133 12.0124 7.24133 12.1552C7.24133 12.298 7.35712 12.4138 7.49995 12.4138Z" fill="black"/>
<path d="M9.31044 12.4138C9.45327 12.4138 9.56906 12.298 9.56906 12.1552C9.56906 12.0124 9.45327 11.8966 9.31044 11.8966C9.16761 11.8966 9.05182 12.0124 9.05182 12.1552C9.05182 12.298 9.16761 12.4138 9.31044 12.4138Z" fill="black"/>
</svg>
