<svg width="15" height="15" viewBox="0 0 15 15" fill="none" xmlns="http://www.w3.org/2000/svg">
<path d="M12.6394 15H9.313C9.18577 15 9.08252 14.8982 9.08252 14.7727V10.1454H5.91702V14.7727C5.91702 14.8982 5.81377 15 5.68654 15H2.35924C2.23202 15 2.12876 14.8982 2.12876 14.7727V7.22406H0.230477C0.135978 7.22406 0.0511587 7.16724 0.0161249 7.08088C-0.018448 6.99452 0.00367862 6.89588 0.0719024 6.83179L7.3405 0.0622163C7.42947 -0.0209659 7.56822 -0.0205113 7.65765 0.0622163L14.9281 6.83179C14.9963 6.89588 15.0184 6.99452 14.9839 7.08088C14.9488 7.16724 14.864 7.22406 14.7695 7.22406H12.8699V14.7727C12.8699 14.8982 12.7666 15 12.6394 15ZM9.54349 14.5455H12.4089V6.99679C12.4089 6.87133 12.5121 6.76951 12.6394 6.76951H14.1896L7.49908 0.539945L0.810379 6.76951H2.35924C2.48647 6.76951 2.58973 6.87133 2.58973 6.99679V14.5455H5.45605V9.91816C5.45605 9.79271 5.55931 9.69089 5.68654 9.69089H9.313C9.44023 9.69089 9.54349 9.79271 9.54349 9.91816V14.5455Z" fill="black"/>
</svg>
