<svg width="66" height="51" viewBox="0 0 66 51" fill="none" xmlns="http://www.w3.org/2000/svg">
<path d="M2 26.9558L9.72952 34.6374L22.4832 21.0469" stroke="#333333" stroke-width="4"/>
<path d="M63.3684 49C63.3684 43.5934 61.0306 38.4083 56.8691 34.5851C52.7076 30.7621 47.0634 28.6143 41.1783 28.6143C35.2931 28.6143 29.6489 30.7621 25.4874 34.5851C21.326 38.4083 18.9881 43.5934 18.9881 49H41.1783H63.3684Z" stroke="#333333" stroke-width="4"/>
<path d="M40.0403 22.7457C45.6966 22.7457 50.2819 18.1822 50.2819 12.5528C50.2819 6.92349 45.6966 2.36 40.0403 2.36C34.384 2.36 29.7987 6.92349 29.7987 12.5528C29.7987 18.1822 34.384 22.7457 40.0403 22.7457Z" stroke="#333333" stroke-width="4"/>
</svg>
