<svg width="15" height="14" viewBox="0 0 15 14" fill="none" xmlns="http://www.w3.org/2000/svg">
<path d="M13.7535 10.7222L11.3652 9.52825C11.14 9.4155 11 9.189 11 8.937V8.09175C11.0573 8.02175 11.1175 7.942 11.1798 7.854C11.4895 7.4165 11.7378 6.9295 11.9183 6.40425C12.271 6.2425 12.5 5.89375 12.5 5.5V4.5C12.5 4.25925 12.41 4.026 12.25 3.84375V2.514C12.264 2.3765 12.319 1.558 11.727 0.88275C11.2135 0.297 10.3802 0 9.25 0C8.11975 0 7.2865 0.297 6.773 0.8825C6.41425 1.29175 6.2935 1.75275 6.257 2.08375C5.8285 1.86225 5.3235 1.75 4.75 1.75C2.15275 1.75 2.0015 3.96375 2 4V5.14475C1.838 5.32125 1.75 5.525 1.75 5.72725V6.59075C1.75 6.8605 1.87075 7.112 2.07775 7.282C2.284 8.0595 2.79125 8.647 2.98875 8.85325V9.539C2.98875 9.73575 2.88175 9.91625 2.696 10.0177L1.03275 11.061C0.39575 11.4085 0 12.0752 0 12.8007V13.75H3.5H4H15V12.7393C15 11.8798 14.5222 11.1067 13.7535 10.7222ZM3.5 12.6905V13.25H0.5V12.8007C0.5 12.2582 0.796 11.7598 1.28525 11.4925L2.94825 10.4493C3.2815 10.2675 3.4885 9.919 3.4885 9.539V8.64125L3.409 8.567C3.4025 8.561 2.73825 7.9335 2.542 7.07825L2.51925 6.97925L2.43375 6.92425C2.31875 6.84975 2.25 6.725 2.25 6.59075V5.72725C2.25 5.63725 2.31125 5.53025 2.41775 5.43375L2.5 5.3595L2.4995 4.0145C2.504 3.94275 2.63425 2.25 4.75 2.25C5.34825 2.25 5.852 2.38825 6.25 2.661V3.84375C6.09 4.026 6 4.25925 6 4.5V5.5C6 5.576 6.00875 5.65075 6.02525 5.72325C6.032 5.75225 6.0455 5.77875 6.05475 5.80675C6.0685 5.84875 6.0795 5.892 6.09875 5.93175C6.099 5.93225 6.09925 5.9325 6.0995 5.933C6.1635 6.065 6.25675 6.183 6.37425 6.27725C6.3755 6.282 6.377 6.28625 6.37825 6.29075C6.39325 6.348 6.409 6.405 6.426 6.46075L6.44625 6.526C6.44975 6.5375 6.454 6.54925 6.45775 6.56075C6.4665 6.58775 6.475 6.6145 6.484 6.641C6.499 6.68475 6.51475 6.73 6.533 6.77925C6.54075 6.79975 6.54925 6.81825 6.55725 6.8385C6.57775 6.89075 6.59825 6.94125 6.61975 6.99125C6.625 7.00325 6.6295 7.01625 6.63475 7.028L6.64875 7.0595C6.65525 7.074 6.662 7.087 6.6685 7.10125C6.693 7.15475 6.717 7.2065 6.742 7.2565C6.746 7.2645 6.74975 7.27325 6.75375 7.28125C6.7695 7.3125 6.78525 7.342 6.801 7.372C6.828 7.4235 6.8545 7.472 6.881 7.519C6.894 7.542 6.90675 7.5645 6.9195 7.58625C6.9555 7.64775 6.98975 7.70425 7.023 7.75675C7.03025 7.768 7.03725 7.77975 7.04425 7.7905C7.10475 7.88425 7.15725 7.96025 7.20075 8.0195C7.21225 8.03525 7.22225 8.04875 7.232 8.062C7.2375 8.06925 7.245 8.07975 7.24975 8.08625V8.9135C7.24975 9.1555 7.11775 9.3775 6.9055 9.4935L6.244 9.85425L6.12875 9.844L6.08175 9.94275L4.67525 10.71C3.95025 11.106 3.5 11.8645 3.5 12.6905ZM14.5 13.25H4V12.6905C4 12.0478 4.3505 11.457 4.91475 11.1495L7.145 9.933C7.51825 9.72925 7.75 9.3385 7.75 8.91375V7.90925V7.909L7.7015 7.851L7.692 7.83975C7.6915 7.839 7.676 7.82025 7.65075 7.78725C7.64925 7.78525 7.64775 7.78325 7.646 7.78125C7.63275 7.764 7.61725 7.74325 7.5995 7.7185C7.59925 7.718 7.599 7.71775 7.59875 7.71725C7.5615 7.6655 7.51475 7.59825 7.46275 7.51725C7.4615 7.5155 7.4605 7.5135 7.45925 7.51175C7.43475 7.4735 7.40875 7.43175 7.38225 7.3875C7.38025 7.38425 7.37825 7.381 7.37625 7.3775C7.31975 7.28275 7.25975 7.1755 7.2 7.05675C7.2 7.05675 7.19975 7.0565 7.19975 7.05625C7.168 6.9925 7.13625 6.9255 7.10525 6.85575C7.101 6.846 7.0965 6.8365 7.09225 6.82675C7.0785 6.7955 7.06475 6.76275 7.05075 6.729C7.04575 6.71675 7.04075 6.704 7.03575 6.6915C7.02275 6.65875 7.0095 6.62575 6.9955 6.588C6.97 6.52 6.946 6.449 6.923 6.37575L6.90925 6.33125C6.90775 6.32625 6.906 6.32125 6.9045 6.316C6.881 6.237 6.8585 6.15625 6.8395 6.07325L6.81675 5.97425L6.7315 5.91925C6.5865 5.82575 6.5 5.669 6.5 5.5V4.5C6.5 4.35975 6.5595 4.229 6.6675 4.13125L6.75 4.057V2.5V2.4115L6.74325 2.40625C6.73475 2.22575 6.7455 1.6725 7.149 1.21225C7.56325 0.7395 8.27025 0.5 9.25 0.5C10.2262 0.5 10.9318 0.73775 11.3465 1.207C11.8333 1.75725 11.7527 2.46125 11.7522 2.46725L11.75 4.057L11.8325 4.1315C11.9405 4.229 12 4.35975 12 4.5V5.5C12 5.71825 11.857 5.90925 11.6445 5.97475L11.52 6.013L11.48 6.13675C11.3127 6.657 11.0745 7.1375 10.7715 7.565C10.6972 7.67025 10.625 7.7635 10.5623 7.83475L10.5 7.90575V8.937C10.5 9.3795 10.7458 9.77725 11.1415 9.97525L13.5297 11.1692C14.1282 11.4685 14.5 12.07 14.5 12.7393V13.25Z" fill="black"/>
</svg>
