<svg width="15" height="15" viewBox="0 0 15 15" fill="none" xmlns="http://www.w3.org/2000/svg">
<path d="M14.8175 0.1834C14.5209 -0.113113 13.9479 -0.0491578 13.1602 0.368527C12.4801 0.729259 11.701 1.3251 11.0227 2.00335C10.7588 2.26731 10.5132 2.53998 10.2909 2.81513L7.20948 2.44555C7.16879 2.44057 7.12572 2.43794 7.08122 2.43794C6.90259 2.43852 6.70701 2.47746 6.51637 2.55126C6.31842 2.62886 6.15561 2.73017 6.03263 2.85258L3.28277 5.60214C3.19725 5.68792 3.19725 5.82702 3.28277 5.91283C3.32434 5.95411 3.37939 5.97696 3.43825 5.97696C3.49681 5.97696 3.55186 5.95411 3.59343 5.91283L6.343 3.16297C6.41709 3.088 6.54151 3.01248 6.67563 2.96065C6.80917 2.90853 6.95996 2.87718 7.07884 2.87718H7.08119C7.10811 2.87718 7.1336 2.87865 7.15704 2.88158L11.1707 3.36298C11.2734 3.3747 11.3865 3.43356 11.4726 3.52051C11.5595 3.60659 11.6184 3.71964 11.6301 3.82242L11.7126 4.5099C11.3765 4.76642 11.0456 4.97859 10.7368 5.13301C10.6797 5.16155 10.6198 5.18938 10.5588 5.21566C10.5114 5.02614 10.4136 4.85229 10.2718 4.71061C10.0659 4.50465 9.79202 4.39121 9.50075 4.39121C9.20946 4.39121 8.93562 4.50465 8.7296 4.71061C8.30442 5.13582 8.30442 5.82767 8.72963 6.25285C8.93559 6.45881 9.20948 6.57225 9.50075 6.57225C9.79202 6.57225 10.0659 6.45881 10.2718 6.25285C10.429 6.0957 10.5321 5.89898 10.5722 5.6852C10.6836 5.6431 10.8035 5.59071 10.9332 5.52588C11.2017 5.39161 11.4848 5.21727 11.7727 5.01116L12.1115 7.83608C12.1144 7.85952 12.1159 7.88498 12.1159 7.91193C12.1162 8.0314 12.0851 8.18307 12.0324 8.31749C11.9806 8.45161 11.905 8.57574 11.8301 8.65012L6.03263 14.4472C5.9641 14.5158 5.87217 14.5535 5.77379 14.5538C5.67541 14.5535 5.58345 14.5158 5.51495 14.4472L0.5458 9.47814C0.477274 9.40961 0.439511 9.31768 0.439218 9.2193C0.439511 9.12092 0.477274 9.02896 0.5458 8.96046L2.97207 6.5339C3.05786 6.44838 3.05786 6.30898 2.97207 6.22347C2.9308 6.18189 2.87545 6.15904 2.81689 6.15904C2.75833 6.15904 2.70328 6.18189 2.6617 6.22347L0.235136 8.64971C0.158701 8.72644 0.0992576 8.81603 0.0585643 8.91617C0.0196289 9.01311 0 9.115 0 9.21924C0 9.32348 0.0196289 9.42537 0.0585643 9.52203C0.0992576 9.62245 0.158701 9.71207 0.235136 9.78848L5.20455 14.7579C5.28099 14.8343 5.37028 14.8938 5.47042 14.9342C5.56704 14.9731 5.66896 14.993 5.77291 14.993H5.77467C5.8789 14.993 5.98051 14.9731 6.07716 14.9342C6.17729 14.8938 6.26691 14.8343 6.34332 14.7579L12.1405 8.9604C12.2629 8.83742 12.3642 8.67461 12.4415 8.47669C12.5153 8.28576 12.5546 8.09047 12.5552 7.91184C12.5552 7.86763 12.5525 7.82457 12.5475 7.78358L12.178 4.70223C12.4509 4.48162 12.7242 4.23588 12.9898 3.97031C13.6694 3.29071 14.2666 2.51329 14.6281 1.83738C15.0483 1.05173 15.1138 0.479796 14.8175 0.1834ZM9.36634 5.62678C9.47395 5.73439 9.64407 5.82682 9.91111 5.82682C9.95705 5.82682 10.0059 5.82403 10.0578 5.81817C10.0308 5.86262 9.99898 5.90448 9.96127 5.94222C9.83828 6.06523 9.67472 6.133 9.50075 6.133C9.32679 6.133 9.16323 6.06523 9.04018 5.94222C8.78623 5.68827 8.78623 5.2751 9.04018 5.02115C9.16323 4.89811 9.32679 4.83037 9.50075 4.83037C9.67472 4.83037 9.83825 4.89814 9.9613 5.02113C10.0544 5.11429 10.1158 5.23071 10.1401 5.35728C9.93892 5.40339 9.76401 5.40333 9.67689 5.31623C9.59113 5.23045 9.45206 5.23048 9.36631 5.31623C9.28059 5.40198 9.28059 5.54103 9.36634 5.62678ZM14.2408 1.63022C13.8987 2.26969 13.3295 3.00943 12.6791 3.65976C12.4938 3.84512 12.305 4.01985 12.1156 4.18256L12.0661 3.76992C12.0406 3.56378 11.9428 3.36993 11.7833 3.20976C11.6231 3.05018 11.4292 2.95239 11.2231 2.9269L10.8106 2.87745C10.9742 2.68687 11.149 2.49826 11.3333 2.31389C12.8821 0.765118 14.2682 0.255324 14.5068 0.493976C14.6177 0.604806 14.5784 0.999112 14.2408 1.63022Z" fill="black"/>
</svg>
